<?xml version="1.0" standalone="no"?>
<!DOCTYPE svg PUBLIC "-//W3C//DTD SVG 20010904//EN"
 "http://www.w3.org/TR/2001/REC-SVG-20010904/DTD/svg10.dtd">
<svg version="1.0" xmlns="http://www.w3.org/2000/svg"
 width="1536.000000pt" height="497.000000pt" viewBox="0 0 1536.000000 497.000000"
 preserveAspectRatio="xMidYMid meet">

<g transform="translate(0.000000,497.000000) scale(0.100000,-0.100000)"
fill="#000000" stroke="none">
<path d="M2320 4850 c0 -6 11 -8 28 -4 39 10 40 14 4 14 -18 0 -32 -5 -32 -10z"/>
<path d="M2525 4850 c3 -6 29 -10 57 -10 64 0 59 6 -10 14 -34 4 -51 2 -47 -4z"/>
<path d="M2173 4843 c20 -2 54 -2 75 0 20 2 3 4 -38 4 -41 0 -58 -2 -37 -4z"/>
<path d="M2668 4843 c17 -2 47 -2 65 0 17 2 3 4 -33 4 -36 0 -50 -2 -32 -4z"/>
<path d="M2005 4820 c-11 -5 -38 -9 -60 -9 -22 -1 -47 -6 -55 -12 -11 -8 -7
-9 19 -5 18 3 58 6 87 6 43 0 52 3 48 15 -7 17 -10 17 -39 5z"/>
<path d="M2180 4799 c-68 -3 -116 -11 -135 -22 -32 -17 -161 -24 -227 -12 -21
4 -44 2 -55 -4 -14 -8 -8 -10 32 -11 69 0 86 -14 37 -28 -22 -7 -52 -12 -67
-12 -15 0 -39 -9 -54 -19 -38 -27 -96 -36 -141 -21 -27 9 -43 9 -56 1 -16 -9
-12 -10 24 -11 48 0 55 -16 15 -31 -16 -5 -49 -21 -75 -34 -26 -14 -53 -25
-59 -25 -6 0 -24 -9 -40 -21 -16 -11 -38 -21 -48 -22 -11 -1 -18 -3 -16 -5 6
-6 -16 -25 -45 -40 -43 -21 -85 -46 -114 -70 -16 -12 -33 -22 -37 -22 -5 0
-18 -8 -29 -17 -45 -40 -58 -51 -104 -86 -53 -40 -173 -145 -190 -165 -6 -7
-27 -30 -46 -51 -46 -49 -99 -110 -130 -151 -14 -17 -32 -39 -40 -48 -8 -8
-19 -23 -25 -33 -5 -9 -37 -56 -69 -105 -33 -49 -71 -111 -85 -139 -13 -27
-32 -59 -42 -70 -9 -11 -20 -34 -24 -52 -3 -17 -12 -34 -20 -37 -8 -3 -17 -22
-20 -43 -4 -21 -15 -50 -26 -65 -10 -15 -19 -37 -19 -50 0 -13 -10 -39 -21
-58 -12 -19 -24 -54 -28 -79 -10 -74 -31 -64 -32 16 0 48 -3 62 -9 47 -12 -31
-20 -115 -9 -108 13 8 11 -130 -2 -163 l-12 -28 -7 25 c-5 14 -8 40 -9 59 -1
19 -3 32 -7 29 -10 -11 -13 -633 -3 -768 12 -165 13 -176 27 -220 6 -19 16
-64 22 -100 7 -36 15 -69 20 -75 4 -5 13 -35 20 -65 7 -30 21 -72 31 -92 11
-21 19 -43 19 -50 0 -7 11 -34 25 -60 14 -26 25 -55 25 -65 0 -10 9 -29 20
-43 11 -14 20 -29 20 -34 0 -12 84 -158 129 -225 20 -29 43 -63 51 -76 8 -12
24 -35 35 -51 83 -123 290 -358 382 -434 23 -19 62 -52 88 -74 44 -38 84 -63
135 -86 14 -6 30 -17 35 -24 9 -11 178 -96 260 -132 17 -7 55 -24 85 -37 30
-14 71 -30 90 -35 19 -6 71 -25 115 -42 44 -18 109 -41 145 -51 36 -10 90 -25
120 -34 30 -8 71 -15 92 -15 20 0 63 -7 95 -16 91 -24 309 -29 423 -10 52 10
131 21 175 27 44 5 100 15 125 23 25 8 69 19 98 25 29 6 63 17 75 25 12 8 38
17 57 21 19 4 49 15 66 24 16 10 46 21 66 25 20 3 41 13 48 21 7 8 18 15 24
15 6 0 58 24 116 53 104 52 128 66 184 103 16 10 36 24 45 29 101 63 247 177
351 273 132 121 361 401 376 459 3 12 12 24 20 27 8 3 14 11 14 19 0 7 11 28
24 46 14 19 28 46 31 62 4 16 10 29 15 29 5 0 13 15 19 33 6 19 20 51 31 72
11 22 20 45 20 53 0 7 8 27 17 45 10 18 23 55 30 82 6 28 19 79 28 115 32 133
45 197 51 260 3 36 12 99 21 140 21 108 34 504 18 551 -7 19 -18 78 -25 129
-7 52 -18 104 -26 115 -8 12 -18 45 -24 74 -5 29 -16 59 -24 67 -9 8 -18 31
-22 52 -3 20 -14 51 -24 67 -10 17 -21 41 -25 55 -3 14 -15 43 -25 65 -54 118
-86 180 -92 183 -5 2 -8 9 -8 15 0 7 -23 50 -50 96 -28 46 -50 86 -50 88 0 2
-19 28 -42 57 -24 30 -61 79 -83 108 -82 109 -286 308 -404 396 -13 9 -38 29
-56 45 -18 15 -37 27 -42 27 -6 0 -18 9 -28 20 -10 11 -23 20 -30 20 -7 0 -22
9 -35 20 -13 11 -28 20 -34 20 -6 0 -24 11 -40 25 -16 14 -35 25 -43 25 -7 0
-21 8 -31 18 -9 9 -35 22 -56 27 -53 13 -59 35 -11 35 24 0 34 4 29 11 -4 7
-28 9 -70 4 -49 -5 -68 -3 -85 9 -21 14 -21 15 15 18 46 4 52 22 9 26 -21 2
-33 -1 -33 -9 0 -8 -14 -9 -47 -4 -94 14 -113 42 -26 37 44 -2 54 0 43 8 -10
7 -45 8 -101 4 -83 -6 -123 2 -139 27 -3 5 -39 11 -80 15 -41 3 -88 12 -105
21 -16 8 -50 17 -75 19 -82 7 -484 9 -590 3z m306 -174 c13 -9 31 -51 73 -166
9 -25 30 -72 46 -105 17 -32 30 -60 31 -62 1 -1 8 0 17 4 19 7 47 74 47 114 0
16 7 50 16 76 12 36 13 53 5 71 -8 17 -8 30 0 44 10 19 12 19 34 5 14 -9 39
-16 58 -16 44 0 47 -5 32 -48 -8 -20 -30 -107 -50 -193 -20 -86 -40 -161 -45
-168 -10 -17 -166 1 -186 21 -17 16 -114 251 -114 275 0 39 -71 74 -83 41 -2
-7 -2 -78 1 -158 l5 -146 -27 -12 c-36 -16 -65 -15 -72 3 -3 8 -7 36 -8 62 -4
73 -26 305 -32 331 -2 13 -2 27 2 33 8 13 232 8 250 -6z m-569 -60 c12 -8 55
-75 96 -148 119 -214 128 -247 69 -245 -16 1 -34 -2 -40 -6 -6 -4 -21 7 -34
25 -26 34 -45 35 -146 7 -64 -19 -90 -41 -94 -81 -2 -23 -12 -36 -36 -50 -31
-18 -35 -19 -50 -3 -15 14 -17 46 -19 231 l-2 215 25 17 c25 16 150 51 189 52
11 1 30 -6 42 -14z m1167 -44 c10 -10 33 -22 52 -26 48 -9 223 -81 256 -105
15 -11 34 -20 42 -20 8 0 26 -15 40 -33 29 -37 35 -97 13 -133 -36 -62 -63
-109 -72 -123 -5 -10 -23 -32 -38 -50 -26 -31 -34 -34 -95 -38 -65 -5 -71 -3
-187 50 -66 31 -133 58 -148 62 -37 8 -44 31 -18 59 12 13 25 41 28 62 3 21
14 56 24 76 11 21 19 52 19 71 0 18 7 42 15 53 8 10 15 37 15 60 0 58 21 72
54 35z m-1889 -290 c14 -15 58 -80 99 -142 110 -168 91 -155 161 -108 108 74
165 91 165 50 0 -14 -62 -56 -170 -114 -19 -11 -54 -32 -78 -48 -24 -16 -47
-29 -52 -29 -8 0 -104 113 -164 194 -16 22 -49 62 -73 89 -49 55 -49 58 21
109 49 35 61 35 91 -1z m2547 -54 c7 -7 25 -21 41 -31 35 -23 38 -70 5 -87
-13 -7 -25 -16 -28 -20 -14 -21 -89 -107 -127 -145 -24 -23 -43 -45 -43 -49 0
-10 -53 -65 -63 -65 -4 0 -26 11 -48 25 l-40 26 23 37 c12 20 50 73 83 117 65
86 76 101 118 164 28 42 55 52 79 28z m-1168 -218 c43 -5 84 -13 91 -19 6 -5
15 -7 18 -3 4 3 7 -1 7 -10 0 -14 11 -17 65 -17 41 0 65 -4 65 -11 0 -6 7 -9
14 -6 10 4 13 1 10 -7 -6 -17 25 -26 91 -26 32 0 45 -3 36 -9 -35 -22 32 -48
86 -32 37 11 53 2 24 -14 -14 -7 -17 -15 -11 -24 7 -13 14 -13 49 -1 38 12 45
11 85 -8 24 -12 46 -22 50 -22 4 0 19 -8 34 -19 15 -10 59 -39 99 -65 176
-116 345 -343 445 -599 51 -130 96 -293 104 -377 3 -36 10 -82 15 -102 19 -76
19 -176 -2 -348 -11 -96 -29 -199 -40 -228 -10 -29 -19 -68 -19 -87 0 -19 -4
-35 -9 -35 -10 0 -27 -41 -36 -86 -3 -18 -15 -40 -26 -50 -10 -9 -19 -27 -19
-39 0 -12 -9 -30 -19 -39 -11 -10 -23 -31 -26 -47 -4 -16 -15 -34 -26 -39 -10
-6 -19 -17 -19 -25 0 -8 -8 -22 -19 -32 -10 -10 -21 -30 -25 -45 -3 -16 -12
-27 -18 -25 -6 1 -17 -9 -25 -23 -7 -14 -18 -24 -23 -22 -6 1 -16 -11 -21 -28
-6 -16 -14 -30 -18 -30 -4 0 -40 -32 -81 -71 -40 -39 -84 -75 -97 -80 -14 -5
-23 -17 -23 -29 0 -14 -7 -20 -24 -20 -23 0 -56 -27 -46 -39 3 -3 -6 -8 -20
-9 -13 -2 -31 -11 -40 -21 -8 -9 -28 -21 -45 -27 -16 -6 -29 -16 -27 -22 2
-12 -15 -16 -50 -13 -9 1 -23 -7 -30 -18 -9 -14 -23 -21 -45 -21 -19 0 -43
-10 -62 -26 -19 -15 -50 -28 -82 -33 -29 -5 -58 -16 -64 -25 -8 -11 -27 -16
-57 -16 -58 0 -161 -19 -169 -32 -11 -17 -359 -11 -437 7 -37 9 -92 19 -122
21 -30 3 -74 14 -96 24 -23 10 -60 21 -82 25 -23 3 -46 13 -52 20 -6 8 -26 17
-43 21 -18 3 -43 14 -57 23 -14 9 -36 23 -50 29 -63 32 -90 47 -155 90 -38 26
-88 63 -110 84 -22 21 -43 38 -46 38 -9 0 -106 98 -164 166 -108 125 -226 299
-255 374 -7 19 -17 40 -22 46 -13 18 -48 122 -71 214 -18 71 -21 114 -21 265
0 127 4 187 13 204 9 16 15 20 21 12 11 -18 20 39 20 124 0 81 6 105 25 105
15 0 25 44 25 110 0 40 3 49 21 53 20 5 21 11 16 51 -7 51 7 101 26 93 8 -3
12 8 13 35 1 21 9 47 18 57 9 10 16 24 16 33 0 8 11 32 25 52 14 20 25 39 25
41 0 2 14 26 32 52 60 91 152 198 231 268 43 39 84 75 91 82 34 31 191 126
276 166 139 65 309 116 440 131 51 5 332 -4 424 -15z m-2116 -1326 c6 -9 6
-29 1 -47 -7 -22 -4 -37 9 -60 17 -29 23 -31 81 -34 67 -3 81 -15 61 -52 -10
-19 -17 -21 -54 -16 -24 4 -55 2 -69 -3 -25 -10 -27 -14 -27 -75 0 -46 -4 -67
-16 -77 -29 -24 -49 1 -52 67 -2 32 -8 64 -14 71 -6 8 -33 13 -67 13 -59 0
-81 11 -81 42 0 24 28 37 78 36 24 0 53 7 68 17 23 15 25 21 20 59 -4 23 -4
50 0 59 8 22 50 22 62 0z m3970 -58 c4 -83 28 -109 93 -100 54 8 78 -10 59
-44 -9 -17 -20 -21 -65 -21 -81 0 -85 -3 -85 -70 0 -74 -6 -90 -35 -90 -32 0
-39 14 -45 90 l-5 65 -65 3 c-72 3 -97 20 -79 53 8 15 21 19 69 19 77 0 90 13
90 89 0 66 4 73 40 69 23 -3 25 -7 28 -63z m-3121 -1437 c13 -12 23 -28 23
-36 0 -8 -24 -42 -53 -76 -30 -34 -76 -88 -102 -121 -26 -33 -56 -68 -67 -78
-23 -23 -23 -33 3 -55 12 -9 41 -34 66 -54 24 -21 63 -49 87 -63 61 -36 70
-65 21 -65 -23 0 -113 64 -225 159 -36 31 -76 63 -90 72 -20 13 -23 20 -15 37
18 39 286 302 308 302 11 0 31 -10 44 -22z m2313 -119 c39 -8 61 -21 97 -57
70 -70 103 -128 103 -180 0 -57 -11 -77 -77 -138 -72 -67 -151 -114 -221 -130
-108 -26 -147 -1 -219 142 l-47 91 19 59 c10 33 25 67 33 77 18 20 104 81 170
119 53 30 70 32 142 17z m-1875 -191 c16 -12 47 -25 69 -28 l41 -5 1 -60 c2
-75 5 -364 4 -389 0 -15 -5 -17 -27 -12 -16 3 -38 8 -51 10 -32 5 -40 15 -49
60 -8 36 -14 42 -85 78 -101 50 -133 57 -147 29 -14 -25 -62 -29 -81 -7 -6 8
-24 16 -38 18 -41 5 -41 40 0 69 40 28 150 123 232 201 67 63 89 69 131 36z
m1363 -50 c5 -7 13 -28 17 -46 8 -39 -15 -101 -93 -245 -39 -73 -51 -103 -46
-122 3 -14 11 -25 18 -25 10 0 65 20 185 65 62 23 100 -10 44 -39 -46 -23
-198 -66 -252 -71 -29 -3 -74 -12 -101 -21 -26 -9 -57 -14 -66 -12 -25 5 -42
54 -26 76 7 9 17 28 23 42 6 14 18 33 26 43 9 9 21 25 27 36 6 10 38 58 70
106 45 68 57 92 49 104 -15 24 -39 25 -119 6 -74 -17 -105 -17 -111 0 -7 23
18 37 83 46 38 5 85 15 104 23 49 20 122 43 141 45 9 0 21 -5 27 -11z m-922
-84 c17 -12 36 -15 63 -10 46 7 50 3 79 -84 12 -36 31 -83 42 -105 11 -21 20
-45 20 -52 0 -20 71 -84 89 -81 14 3 16 20 13 135 -1 72 -5 139 -8 147 -9 23
39 42 74 30 24 -8 27 -15 28 -54 1 -25 7 -114 14 -197 7 -84 10 -159 7 -167
-5 -12 -28 -14 -119 -13 l-113 2 -29 60 c-16 33 -37 76 -47 95 -9 19 -22 61
-28 94 -12 64 -25 86 -50 86 -28 0 -41 -22 -41 -69 0 -26 -5 -92 -12 -148 -13
-115 -12 -114 -91 -92 -44 12 -56 32 -34 57 8 9 20 49 26 87 7 39 19 89 27
113 8 23 14 71 14 106 0 34 3 66 7 69 11 12 43 8 69 -9z"/>
<path d="M1781 4477 c-12 -16 -15 -47 -13 -139 2 -78 26 -115 65 -103 12 3 41
11 65 17 23 5 42 13 42 16 -1 4 -10 23 -20 42 -11 19 -30 58 -43 85 -34 69
-76 105 -96 82z"/>
<path d="M3153 4432 c-6 -4 -26 -43 -43 -87 -17 -44 -40 -99 -51 -122 -28 -62
-25 -88 14 -116 86 -65 130 -71 182 -26 35 31 95 112 95 129 0 5 11 21 24 37
13 15 22 36 20 45 -4 32 -68 88 -132 118 -66 31 -88 35 -109 22z"/>
<path d="M2195 3869 c-27 -5 -70 -11 -95 -14 -25 -4 -60 -13 -79 -22 -19 -8
-52 -18 -75 -21 -22 -3 -47 -11 -54 -19 -7 -7 -20 -13 -28 -13 -16 0 -110 -40
-154 -65 -14 -8 -39 -21 -56 -29 -17 -8 -36 -22 -44 -30 -7 -9 -21 -16 -31
-16 -10 0 -26 -11 -35 -25 -9 -14 -23 -25 -31 -25 -19 0 -231 -214 -273 -276
-19 -27 -38 -52 -43 -55 -5 -3 -7 -9 -5 -12 1 -4 -5 -16 -14 -27 -10 -11 -18
-27 -18 -36 0 -9 -9 -27 -20 -41 -11 -14 -20 -33 -20 -43 0 -9 -9 -25 -20 -35
-11 -10 -20 -28 -20 -41 0 -13 -8 -31 -19 -41 -10 -10 -21 -39 -25 -68 -3 -27
-13 -55 -21 -61 -8 -6 -19 -40 -24 -76 -5 -36 -16 -78 -24 -94 -17 -35 -24
-420 -9 -494 38 -180 119 -381 208 -510 84 -124 237 -287 374 -401 52 -44 104
-88 115 -98 11 -10 30 -24 43 -30 27 -14 29 -31 2 -31 -11 0 -20 -4 -20 -10 0
-5 18 -10 40 -10 29 0 40 4 40 15 0 15 11 24 158 128 176 125 348 284 407 376
13 22 29 42 34 45 5 4 12 20 16 36 9 43 40 41 31 -2 -3 -17 -12 -39 -19 -47
-8 -9 -20 -32 -27 -51 -12 -31 -36 -66 -109 -162 -23 -29 -26 -38 -12 -38 10
0 117 104 158 153 41 48 91 171 104 252 4 28 14 86 23 130 20 102 21 186 3
179 -7 -2 -22 -19 -32 -37 -17 -28 -20 -29 -23 -12 -5 25 -56 93 -94 124 -32
25 -117 39 -248 40 -40 1 -74 7 -86 15 -11 8 -55 19 -97 25 -43 6 -88 17 -100
25 -12 7 -34 16 -48 20 -31 7 -120 48 -173 80 -68 42 -180 161 -226 241 -73
128 -105 244 -125 450 -5 44 -4 46 6 23 23 -58 39 -27 39 73 0 53 -4 71 -15
75 -18 7 -20 45 -4 61 6 6 17 9 24 6 8 -2 18 5 25 16 12 23 40 27 71 11 16 -9
19 -22 19 -90 0 -72 4 -88 40 -167 66 -142 94 -196 115 -224 31 -40 52 -70 87
-124 17 -27 40 -60 51 -72 18 -20 18 -23 4 -29 -47 -18 -21 -75 55 -120 138
-80 251 -114 384 -114 98 0 124 16 171 105 20 39 40 72 45 73 4 2 8 9 8 16 0
30 195 206 227 206 4 0 25 8 47 19 80 36 253 58 346 42 93 -15 173 -33 220
-48 25 -8 63 -19 85 -25 22 -6 47 -17 56 -24 9 -8 39 -21 67 -29 29 -9 52 -20
52 -25 0 -5 17 -12 37 -16 21 -4 44 -13 52 -21 10 -10 25 -13 48 -8 29 5 40 1
75 -29 23 -20 45 -36 50 -36 15 0 8 80 -11 135 -10 29 -22 73 -26 97 -4 24
-11 48 -16 54 -5 6 -24 58 -43 117 -47 145 -117 279 -191 363 -5 6 -30 35 -55
64 -51 60 -195 180 -216 180 -7 0 -17 6 -21 13 -9 14 -58 41 -163 92 -41 20
-82 41 -90 46 -19 12 -20 12 -115 44 -44 15 -107 31 -140 35 -33 5 -80 13
-105 19 -53 12 -303 12 -375 0z m794 -884 c20 -20 14 -23 -55 -35 -32 -6 -66
-14 -74 -17 -8 -3 -51 -14 -95 -23 -44 -10 -110 -32 -147 -50 -126 -61 -274
-206 -325 -316 -31 -68 -53 -86 -103 -86 -67 1 -94 38 -45 60 14 7 31 12 38
12 20 0 61 52 92 115 34 72 89 148 138 192 60 54 169 123 212 134 22 5 49 14
60 19 38 17 61 19 175 14 82 -3 119 -8 129 -19z m-552 -1172 c-3 -10 -5 -4 -5
12 0 17 2 24 5 18 2 -7 2 -21 0 -30z"/>
<path d="M3160 3740 c0 -5 9 -10 21 -10 11 0 17 5 14 10 -3 6 -13 10 -21 10
-8 0 -14 -4 -14 -10z"/>
<path d="M3235 3690 c3 -5 8 -10 11 -10 2 0 4 5 4 10 0 6 -5 10 -11 10 -5 0
-7 -4 -4 -10z"/>
<path d="M2905 2753 c-11 -3 -25 -9 -31 -14 -6 -5 -33 -12 -60 -15 -27 -3 -60
-14 -74 -24 -14 -9 -36 -21 -49 -25 -43 -13 -90 -68 -106 -123 -17 -58 -14
-81 20 -127 56 -77 95 -216 95 -342 0 -115 -17 -235 -39 -278 -12 -21 -21 -49
-21 -61 0 -11 -9 -29 -19 -38 -10 -10 -22 -32 -25 -51 -4 -21 -13 -35 -26 -38
-11 -3 -20 -13 -20 -23 0 -10 -9 -27 -20 -39 -10 -11 -44 -46 -75 -77 -30 -32
-60 -58 -65 -58 -5 0 -12 -9 -15 -20 -3 -11 -13 -20 -20 -20 -8 0 -25 -10 -39
-22 -45 -41 -84 -68 -100 -68 -8 0 -21 -9 -28 -19 -8 -11 -27 -23 -43 -27 -17
-4 -37 -12 -45 -19 -22 -17 -99 -51 -161 -70 -33 -11 -64 -29 -80 -47 -22 -24
-33 -29 -60 -26 -26 2 -34 -1 -37 -15 -2 -10 3 -17 11 -17 9 0 37 -9 63 -20
26 -12 71 -21 101 -22 43 -1 53 -5 53 -19 0 -15 22 -17 213 -24 207 -7 269 -3
427 26 237 44 494 167 701 335 102 84 256 251 292 320 9 19 22 34 27 34 6 0
10 6 10 14 0 8 11 27 24 43 14 16 28 42 32 57 4 16 15 31 24 33 12 3 20 19 24
53 4 29 12 50 22 54 8 3 12 2 9 -4 -3 -6 -1 -10 4 -10 7 0 11 23 11 55 0 40 5
59 19 72 30 28 33 73 20 232 -12 147 -12 149 -45 185 -22 24 -42 36 -59 36
-24 0 -184 77 -237 114 -12 9 -32 16 -43 16 -11 0 -33 9 -50 20 -16 11 -38 20
-48 20 -10 0 -34 8 -55 19 -20 10 -66 23 -101 29 -35 6 -69 16 -76 22 -14 12
-198 22 -230 13z"/>
<path d="M2195 1380 c-3 -5 -1 -10 4 -10 6 0 11 5 11 10 0 6 -2 10 -4 10 -3 0
-8 -4 -11 -10z"/>
<path d="M3454 920 c-51 -29 -94 -72 -94 -94 0 -13 52 -98 105 -171 20 -27 42
-59 49 -70 16 -23 34 -17 133 47 47 30 63 47 63 63 0 29 -59 134 -113 202 -50
62 -70 65 -143 23z"/>
<path d="M1693 723 c-10 -14 -33 -42 -52 -62 -36 -39 -53 -74 -46 -93 16 -39
108 -72 143 -50 14 9 35 153 26 187 -3 12 -16 27 -30 33 -20 10 -26 8 -41 -15z"/>
<path d="M2861 4806 c11 -9 150 -15 144 -6 -3 5 -38 10 -77 10 -39 0 -69 -2
-67 -4z"/>
<path d="M3033 4755 c2 -5 9 -10 15 -9 7 1 28 2 48 3 20 0 33 5 29 11 -8 13
-96 9 -92 -5z"/>
<path d="M1628 4713 c12 -2 30 -2 40 0 9 3 -1 5 -23 4 -22 0 -30 -2 -17 -4z"/>
<path d="M1410 4625 l-25 -14 38 -1 c26 0 37 4 37 15 0 19 -17 19 -50 0z"/>
<path d="M1330 4585 c-25 -14 -25 -14 13 -15 26 0 37 4 35 12 -6 18 -20 19
-48 3z"/>
<path d="M3513 4593 c-22 -8 -14 -23 12 -23 14 0 25 4 25 9 0 11 -21 19 -37
14z"/>
<path d="M3595 4540 c-3 -5 -1 -10 4 -10 6 0 11 5 11 10 0 6 -2 10 -4 10 -3 0
-8 -4 -11 -10z"/>
<path d="M1225 4531 c-10 -17 10 -20 35 -5 l25 13 -27 1 c-15 0 -29 -4 -33 -9z"/>
<path d="M1184 4500 c-30 -12 -40 -30 -17 -30 23 0 59 25 47 32 -5 3 -19 2
-30 -2z"/>
<path d="M3678 4493 c6 -2 18 -2 25 0 6 3 1 5 -13 5 -14 0 -19 -2 -12 -5z"/>
<path d="M3740 4455 c7 -8 18 -15 26 -15 7 0 25 -11 40 -25 15 -14 30 -25 35
-25 12 0 212 -182 312 -285 53 -54 187 -221 212 -264 6 -10 18 -25 28 -35 9
-10 17 -24 17 -32 0 -7 9 -19 20 -26 11 -7 20 -18 20 -25 0 -6 11 -24 24 -40
14 -16 28 -41 31 -55 4 -14 15 -34 24 -45 10 -10 21 -30 24 -44 4 -14 16 -36
27 -49 11 -13 20 -35 20 -49 0 -15 9 -34 19 -43 11 -9 23 -34 27 -55 3 -21 13
-44 22 -50 9 -8 17 -34 20 -68 3 -35 9 -55 17 -55 18 0 25 -24 25 -90 0 -32 5
-62 10 -65 6 -3 10 3 10 15 0 12 5 18 10 15 14 -9 12 5 -5 35 -8 14 -14 36
-15 50 0 32 -47 173 -76 231 -13 26 -24 52 -24 58 0 17 -116 248 -140 279 -21
26 -135 197 -155 232 -17 29 -128 158 -210 244 -37 40 -153 144 -189 171 -15
11 -36 27 -46 37 -10 9 -27 19 -39 23 -12 3 -21 11 -21 16 0 5 -6 9 -12 9 -7
0 -24 9 -38 20 -31 24 -69 28 -50 5z"/>
<path d="M1105 4450 c-3 -5 3 -10 14 -10 12 0 21 5 21 10 0 6 -6 10 -14 10 -8
0 -18 -4 -21 -10z"/>
<path d="M1035 4400 c-10 -11 -22 -20 -27 -20 -4 0 -21 -11 -36 -25 -16 -14
-37 -32 -48 -40 -16 -12 -16 -14 -3 -15 14 0 30 11 92 65 10 9 29 21 42 27 14
6 25 15 25 20 0 15 -27 8 -45 -12z"/>
<path d="M843 4245 c-24 -25 -49 -45 -54 -45 -5 0 -9 -7 -9 -17 0 -14 3 -14
23 3 58 50 110 104 98 104 -7 0 -33 -20 -58 -45z"/>
<path d="M650 4065 c-5 -13 -32 -48 -60 -77 -27 -29 -57 -60 -65 -69 -8 -9
-15 -21 -15 -27 0 -6 -9 -16 -19 -22 -11 -5 -22 -23 -26 -39 -3 -16 -13 -32
-21 -35 -8 -3 -20 -20 -26 -36 -6 -17 -13 -28 -16 -25 -6 6 -16 -12 -85 -152
-22 -43 -47 -95 -58 -115 -10 -20 -19 -51 -19 -68 0 -17 -4 -29 -9 -25 -11 6
-23 -10 -27 -39 -2 -12 -7 -36 -13 -53 -5 -18 -6 -35 -2 -38 13 -8 21 6 21 37
0 16 7 39 15 51 8 13 24 50 35 82 32 93 53 135 67 135 7 0 13 7 13 16 0 15 41
94 65 124 7 8 27 42 44 74 18 33 40 67 49 75 10 9 30 36 46 61 16 25 46 62 67
83 22 21 39 41 39 46 0 4 9 16 20 26 24 22 26 35 5 35 -9 0 -20 -11 -25 -25z"/>
<path d="M5330 3150 l0 -900 3388 0 3387 0 0 827 0 828 1460 0 1460 0 0 -1450
0 -1450 -1455 0 -1455 0 -3 573 -2 572 -3390 0 -3390 0 0 -645 0 -645 4909 0
c2700 0 4915 2 4923 5 11 4 12 276 8 1593 l-5 1587 -4917 3 -4918 2 0 -900z
m4214 333 c22 -8 53 -23 68 -35 37 -25 78 -107 78 -153 0 -29 -5 -37 -27 -46
-16 -6 -44 -12 -63 -13 -34 -1 -35 -1 -36 46 -2 72 -11 95 -48 117 -48 30
-172 30 -210 0 -62 -49 -15 -135 95 -172 147 -50 272 -140 304 -220 21 -52 22
-150 2 -198 -30 -74 -115 -134 -225 -160 -99 -24 -252 11 -319 73 -40 37 -64
104 -61 166 l3 57 40 8 c69 14 90 13 87 -3 -35 -151 21 -224 165 -218 80 4
107 19 117 70 13 66 -29 109 -159 163 -112 46 -180 99 -218 170 -31 57 -31
185 0 235 61 98 169 144 313 133 30 -3 73 -11 94 -20z m-3636 5 c8 -8 12 -59
12 -165 l0 -153 85 0 85 0 0 153 c0 106 4 157 12 165 14 14 215 17 236 4 10
-7 12 -97 10 -418 l-3 -409 -125 0 -125 0 -3 203 -2 202 -85 0 -85 0 -2 -202
-3 -203 -125 0 -125 0 -3 404 c-1 290 1 408 9 417 15 18 219 20 237 2z m817
-10 c3 -13 4 -201 3 -418 l-3 -395 -125 0 -125 0 -3 405 c-1 223 0 411 3 417
3 10 38 13 124 13 117 0 121 -1 126 -22z m279 16 c9 -3 32 -34 53 -68 20 -33
39 -63 43 -66 11 -10 245 -365 248 -377 2 -7 8 -13 13 -13 5 0 10 111 11 257
l3 258 28 9 c19 7 34 7 45 0 16 -10 17 -46 17 -420 l0 -409 -96 -3 -97 -3 -55
83 c-30 46 -99 151 -153 233 -55 83 -103 151 -108 153 -4 1 -7 -96 -7 -216 1
-120 -1 -226 -5 -235 -4 -12 -18 -17 -50 -17 -39 0 -44 3 -50 26 -4 14 -4 199
-1 411 5 301 9 388 19 394 15 10 119 12 142 3z m1011 -8 c92 -18 137 -38 183
-84 76 -77 105 -166 104 -327 0 -235 -72 -345 -263 -404 -21 -6 -120 -11 -241
-11 -205 0 -206 0 -212 23 -3 12 -6 195 -6 408 0 286 3 388 12 397 17 17 331
15 423 -2z m606 4 c18 -10 19 -24 19 -299 0 -327 3 -367 35 -407 20 -26 28
-28 92 -28 81 -1 117 17 139 70 22 52 22 61 23 371 l1 293 26 6 c14 4 34 2 45
-2 20 -9 20 -20 22 -331 2 -246 -1 -325 -10 -334 -7 -7 -13 -19 -13 -27 0 -27
-63 -94 -111 -117 -63 -30 -214 -51 -261 -36 -18 6 -45 13 -59 16 -40 7 -121
66 -142 102 -41 71 -47 125 -47 424 0 208 3 288 12 297 15 15 201 16 229 2z
m1774 -6 c10 -10 15 -29 13 -48 l-3 -31 -103 -3 -103 -3 1 -361 c1 -203 -3
-365 -8 -370 -5 -5 -65 -7 -133 -6 l-124 3 -3 368 -2 367 -100 0 -100 0 0 44
c0 34 4 46 18 49 9 3 155 5 324 6 271 1 308 -1 323 -15z m433 -2 c10 -10 33
-74 51 -142 18 -69 39 -144 47 -167 7 -23 23 -77 35 -120 26 -95 30 -113 63
-233 15 -52 29 -110 33 -127 l6 -33 -125 0 -125 0 -21 68 c-11 37 -22 76 -24
87 -3 18 -12 20 -121 23 -89 2 -118 0 -121 -10 -2 -7 -12 -42 -22 -78 -9 -36
-22 -71 -27 -77 -11 -15 -93 -18 -102 -4 -4 8 32 139 157 556 16 55 39 136 52
179 15 56 28 82 41 87 11 4 57 8 103 8 66 1 85 -2 100 -17z m437 3 c12 -7 54
-64 95 -126 41 -63 77 -116 81 -119 3 -3 46 -66 95 -140 l89 -135 5 265 5 265
45 0 45 0 0 -415 0 -415 -95 -2 -95 -3 -25 34 c-14 19 -86 128 -160 242 l-135
207 -5 -239 -5 -239 -50 0 -50 0 -3 398 c-1 263 1 405 8 417 9 17 21 20 73 19
34 -1 71 -7 82 -14z m-5241 -1751 l33 -99 111 -3 c62 -1 112 -7 112 -12 0 -5
-38 -37 -85 -71 -47 -34 -85 -65 -85 -69 0 -4 13 -50 30 -101 16 -52 30 -97
30 -101 0 -16 -17 -6 -95 52 -44 33 -84 60 -89 60 -5 0 -47 -27 -93 -61 -47
-33 -89 -59 -93 -57 -4 2 7 48 25 103 18 55 31 105 28 110 -2 6 -40 35 -83 65
-44 30 -79 61 -80 68 0 9 28 12 109 12 l110 0 26 88 c28 90 43 127 51 119 2
-2 19 -49 38 -103z m3709 -5 l32 -94 108 -3 c76 -2 107 -6 107 -15 0 -7 -26
-30 -57 -52 -31 -22 -69 -50 -84 -63 l-27 -22 34 -101 c19 -56 34 -103 34
-105 0 -13 -28 3 -99 56 -45 33 -86 60 -91 60 -6 0 -47 -27 -92 -60 -72 -54
-98 -69 -98 -56 0 2 14 46 30 96 17 50 30 98 30 105 0 8 -39 41 -86 76 -47 34
-82 65 -77 70 4 4 55 10 113 11 l105 3 34 103 c21 65 37 100 43 94 5 -5 24
-52 41 -103z m1840 0 l32 -94 108 -3 c81 -2 107 -6 107 -16 0 -7 -34 -37 -76
-66 -41 -29 -78 -59 -81 -66 -4 -12 29 -135 53 -199 11 -27 -13 -16 -95 45
-45 33 -86 60 -91 60 -5 0 -46 -27 -91 -60 -44 -33 -85 -60 -91 -60 -10 0 -9
4 29 122 14 43 23 84 20 92 -3 8 -40 38 -81 67 -42 29 -76 58 -76 65 0 10 28
14 108 16 l107 3 34 103 c20 60 38 99 43 94 5 -5 24 -52 41 -103z m-4617 4
l30 -98 112 -3 c64 -1 112 -7 112 -12 0 -6 -30 -31 -67 -58 -120 -86 -111 -64
-73 -181 18 -56 30 -104 27 -107 -3 -4 -45 22 -92 56 -47 34 -92 59 -100 57
-7 -3 -47 -31 -89 -61 -41 -31 -77 -56 -80 -56 -12 0 -5 29 25 121 l30 93 -23
18 c-13 9 -51 37 -85 60 -35 24 -63 49 -63 56 0 9 28 12 109 12 l110 0 32 100
c19 55 38 100 44 100 6 0 24 -44 41 -97z m917 -3 l32 -95 108 -3 c76 -2 107
-6 107 -15 0 -7 -26 -30 -57 -52 -31 -22 -69 -50 -84 -63 l-28 -23 35 -101
c19 -56 34 -103 34 -105 0 -11 -27 4 -100 57 -46 33 -87 60 -92 60 -5 0 -43
-25 -84 -56 -79 -58 -104 -72 -104 -58 0 5 14 49 30 99 17 49 30 95 30 102 0
6 -39 39 -86 74 -47 34 -82 65 -77 70 4 4 55 10 113 11 l105 3 32 95 c18 52
32 97 33 98 0 2 5 2 11 0 5 -2 25 -46 42 -98z m928 0 l32 -100 109 0 c129 0
135 -8 51 -66 -31 -21 -69 -49 -84 -62 l-28 -23 35 -101 c19 -56 34 -103 34
-105 0 -12 -31 5 -101 57 -44 33 -85 60 -90 60 -5 0 -46 -27 -91 -60 -86 -63
-103 -71 -94 -42 3 9 17 55 31 100 15 46 24 90 22 96 -3 7 -42 39 -86 70 -45
31 -81 61 -81 66 0 5 51 11 113 12 l112 3 27 80 c15 44 29 88 31 98 10 37 27
13 58 -83z m1846 3 l31 -98 111 -3 c63 -1 111 -7 111 -12 0 -6 -30 -31 -67
-58 -120 -85 -111 -63 -70 -185 19 -59 31 -107 25 -107 -5 0 -47 27 -93 60
-46 33 -86 60 -90 60 -4 0 -45 -27 -92 -61 -46 -34 -87 -58 -91 -55 -3 4 9 52
27 107 18 56 29 104 24 109 -4 4 -43 33 -85 64 -43 31 -78 61 -78 66 0 5 50
11 111 12 l111 3 31 98 c17 53 36 97 42 97 6 0 25 -44 42 -97z"/>
<path d="M7847 3403 c-13 -12 -8 -651 5 -655 24 -8 108 9 128 27 38 34 53 116
54 290 1 242 -24 322 -105 339 -41 8 -74 8 -82 -1z"/>
<path d="M10631 3188 c-13 -55 -18 -72 -51 -177 -11 -35 -20 -68 -20 -73 0 -4
38 -8 85 -8 66 0 85 3 85 14 0 8 -11 51 -24 97 -13 46 -29 107 -36 134 -18 70
-24 72 -39 13z"/>
<path d="M12280 2455 l0 -1285 1285 0 1285 0 0 1285 0 1285 -1285 0 -1285 0 0
-1285z m1285 790 c107 -20 188 -49 318 -112 l108 -53 103 0 c56 0 127 -4 157
-9 30 -5 86 -15 124 -21 102 -18 206 -53 293 -101 42 -23 79 -45 82 -48 3 -4
20 -18 38 -33 36 -30 34 -33 -24 -43 -39 -6 -44 -4 -86 37 -63 62 -77 71 -143
97 -33 12 -70 27 -83 32 -28 11 -32 11 -32 1 0 -4 15 -13 33 -20 33 -12 97
-67 97 -83 0 -16 -26 -9 -45 11 -23 25 -116 60 -160 60 -48 0 -125 -31 -165
-67 -16 -15 -28 -19 -34 -13 -16 16 58 84 112 103 26 9 65 18 87 18 l40 1 -40
9 c-22 5 -121 14 -220 19 -99 6 -253 14 -343 19 -172 10 -212 21 -212 60 0 24
18 38 55 43 23 3 13 8 -50 23 -116 29 -230 27 -598 -12 -114 -11 -74 -40 69
-49 55 -3 106 -8 114 -11 33 -12 -27 -20 -109 -15 -46 3 -143 0 -215 -7 -189
-17 -283 -38 -346 -77 -42 -26 -52 -38 -70 -84 -20 -54 -26 -55 -54 -14 -41
64 -43 89 -9 121 38 35 57 44 168 78 50 15 101 31 115 35 28 8 90 25 148 39
20 5 55 14 77 19 38 10 189 32 340 51 114 14 274 12 360 -4z m-285 -192 c14
-5 220 -18 450 -29 58 -3 116 -8 130 -11 60 -15 -72 -22 -420 -22 l-366 -1 1
-52 c0 -69 -20 -71 -45 -5 -24 63 -31 70 -95 102 -30 14 -55 29 -55 31 0 7
380 -6 400 -13z m-402 -79 c68 -34 117 -94 77 -94 -8 0 -15 4 -15 8 0 21 -116
72 -165 72 -55 0 -175 -49 -175 -72 0 -4 -7 -8 -15 -8 -25 0 -17 27 18 56 82
69 184 83 275 38z m364 -19 c4 -6 16 -23 27 -36 19 -23 25 -24 198 -30 378
-14 523 -22 523 -31 0 -4 -158 -8 -350 -8 -388 0 -391 0 -447 63 -46 51 -44
70 5 61 20 -4 40 -12 44 -19z m-380 -46 c33 -24 68 -87 68 -122 0 -69 -54
-133 -127 -152 -59 -15 -93 -4 -144 46 -57 57 -62 138 -10 199 50 60 150 74
213 29z m1529 21 c43 -12 85 -51 105 -98 19 -45 18 -58 -7 -109 -26 -54 -65
-82 -126 -92 -42 -6 -54 -4 -92 18 -94 56 -108 176 -29 249 41 38 90 48 149
32z m-655 -260 c7 -19 22 -73 34 -120 12 -47 24 -93 27 -104 8 -30 20 -6 47
94 14 52 29 108 34 124 10 35 32 52 57 42 20 -7 17 -35 -15 -138 -11 -35 -25
-81 -32 -103 -6 -22 -17 -58 -23 -80 -7 -22 -18 -59 -24 -82 l-12 -43 -64 0
-64 0 -16 58 c-9 31 -22 77 -30 102 -7 25 -20 77 -30 115 -36 152 -35 149 -50
129 -11 -15 -27 -19 -82 -19 l-68 0 0 -55 0 -55 42 3 c60 5 83 -5 83 -34 0
-23 -3 -24 -65 -24 l-65 0 0 -80 0 -80 90 0 90 0 0 -30 0 -30 -159 0 c-136 0
-160 2 -165 16 -12 32 -7 409 6 422 9 9 69 12 227 10 l215 -3 12 -35z m-1195
-560 c10 -6 19 -19 19 -30 0 -10 4 -21 9 -24 5 -3 11 -20 14 -38 3 -18 11 -58
19 -88 l14 -55 11 35 c6 19 14 46 18 60 24 97 37 135 48 142 19 12 112 9 125
-4 9 -9 12 -73 12 -225 l0 -213 -70 0 -69 0 -3 103 c-3 112 -5 111 -39 -13
l-24 -85 -45 -3 -45 -3 -12 43 c-7 24 -20 70 -30 103 l-18 60 -3 -103 -3 -103
-32 3 -32 3 -3 210 c-2 189 -1 211 15 222 20 16 97 17 124 3z m627 -9 c75 -38
101 -93 102 -214 0 -143 -48 -207 -172 -226 -104 -17 -193 38 -219 134 -6 22
-9 78 -6 127 5 98 24 134 94 174 50 30 148 32 201 5z m462 -2 c17 -31 -4 -49
-59 -49 l-46 0 3 -190 3 -190 -81 0 -81 0 3 190 3 189 -50 3 c-39 2 -51 7 -53
21 -9 45 -2 47 177 47 162 0 171 -1 181 -21z m300 1 c70 -36 100 -99 100 -213
0 -66 -5 -92 -22 -127 -71 -140 -285 -140 -355 0 -40 79 -27 246 24 302 51 57
178 76 253 38z m407 5 c18 -4 46 -21 63 -38 24 -25 30 -39 30 -75 0 -38 -5
-50 -33 -76 l-33 -31 28 -23 c21 -18 28 -32 28 -60 0 -20 5 -57 11 -81 5 -24
7 -46 4 -50 -10 -9 -139 0 -146 11 -3 5 -9 45 -12 89 -7 93 -10 99 -43 99 -24
0 -24 -1 -24 -99 l0 -99 -60 -4 c-33 -1 -65 -1 -70 0 -16 6 -13 439 3 446 16
7 214 0 254 -9z m384 -8 c19 -12 43 -40 54 -60 20 -38 20 -38 1 -53 -11 -8
-30 -14 -43 -14 -19 0 -23 5 -23 30 0 43 -31 70 -80 70 -32 0 -43 -5 -57 -26
-17 -26 -16 -27 10 -48 15 -12 50 -30 77 -40 27 -10 68 -35 91 -55 38 -33 42
-42 47 -92 4 -49 1 -59 -23 -87 -15 -18 -41 -40 -59 -49 -39 -20 -129 -20
-179 0 -67 28 -106 137 -54 151 50 13 57 9 57 -38 0 -27 6 -51 16 -60 18 -19
94 -22 112 -4 32 32 -2 83 -68 103 -69 22 -140 102 -140 159 0 33 42 93 79
114 52 29 138 29 182 -1z"/>
<path d="M13692 3119 c22 -19 44 -28 68 -28 33 0 34 1 16 14 -11 8 -28 15 -37
15 -10 0 -20 4 -23 9 -3 5 -17 11 -31 14 -25 4 -25 4 7 -24z"/>
<path d="M13039 2053 c-22 -25 -26 -258 -5 -306 10 -25 21 -37 34 -37 41 0 47
25 47 180 0 110 -3 151 -14 163 -17 22 -45 22 -62 0z"/>
<path d="M13799 2053 c-11 -12 -14 -53 -14 -163 0 -153 7 -180 45 -180 38 0
45 27 45 180 0 110 -3 151 -14 163 -17 22 -45 22 -62 0z"/>
<path d="M14216 2053 c-10 -10 -7 -121 4 -128 5 -3 22 0 37 7 23 11 28 21 31
53 1 22 -1 45 -5 51 -10 14 -58 26 -67 17z"/>
<path d="M4783 2910 c0 -36 2 -50 4 -32 2 17 2 47 0 65 -2 17 -4 3 -4 -33z"/>
<path d="M4812 2815 c0 -16 2 -22 5 -12 2 9 2 23 0 30 -3 6 -5 -1 -5 -18z"/>
<path d="M69 2718 c-2 -18 -1 -78 2 -133 l5 -100 2 133 c2 127 -2 167 -9 100z"/>
<path d="M4827 2405 c-10 -268 -11 -275 -25 -302 -7 -12 -17 -57 -22 -100 -6
-43 -14 -85 -17 -93 -3 -8 -5 -19 -4 -24 1 -5 -2 -12 -6 -15 -5 -3 -15 -35
-22 -71 -7 -35 -19 -77 -27 -92 -8 -15 -17 -48 -21 -73 -3 -25 -9 -45 -12 -45
-3 0 -12 -15 -19 -32 -11 -30 -52 -118 -72 -158 -73 -143 -109 -208 -127 -228
-12 -13 -35 -45 -50 -71 -25 -42 -114 -157 -212 -274 -23 -26 -41 -52 -41 -57
0 -6 -5 -10 -11 -10 -6 0 -36 -24 -66 -52 -30 -29 -69 -62 -87 -73 -18 -11
-40 -27 -48 -35 -9 -8 -31 -26 -48 -40 -18 -14 -41 -33 -51 -43 -11 -9 -23
-17 -29 -17 -5 0 -25 -13 -43 -30 -19 -16 -39 -30 -45 -30 -5 0 -15 -7 -22
-16 -8 -8 -28 -21 -47 -29 -18 -8 -33 -19 -33 -24 0 -6 -6 -11 -14 -11 -17 0
-135 -59 -154 -77 -7 -7 -28 -15 -47 -19 -19 -3 -39 -12 -46 -20 -6 -7 -26
-16 -45 -20 -19 -3 -51 -15 -71 -25 -21 -11 -46 -19 -58 -19 -38 0 -64 -12
-58 -26 4 -10 -4 -14 -31 -14 -20 0 -75 -11 -122 -25 -52 -15 -112 -25 -151
-25 -35 0 -62 -3 -59 -8 6 -10 228 5 235 16 5 9 97 32 147 36 11 1 31 10 44
19 14 9 34 17 45 17 12 0 25 4 30 8 6 5 35 16 65 26 30 9 69 25 85 36 17 11
38 20 49 20 10 0 31 11 48 25 16 14 36 25 44 25 8 0 24 9 36 20 12 11 29 20
39 20 9 0 28 9 42 20 14 11 29 20 34 20 5 0 20 11 33 25 13 14 29 25 35 25 7
0 24 10 38 23 50 42 85 67 96 67 6 0 11 4 11 9 0 5 33 35 73 67 144 117 396
390 397 431 0 7 9 17 20 23 11 6 20 15 20 21 0 6 11 25 25 43 14 18 25 40 25
49 0 10 4 17 8 17 5 0 26 35 48 78 21 42 47 85 56 95 10 10 18 28 18 41 0 13
8 34 19 47 10 13 22 39 26 58 4 19 13 41 21 48 7 8 16 30 20 51 3 20 15 51 25
68 11 17 19 45 19 62 0 17 9 52 20 78 11 25 25 78 30 116 6 38 14 77 19 86 7
14 14 72 35 287 2 17 0 95 -3 175 l-6 145 -8 -220z"/>
<path d="M65 2440 c-3 -11 -2 -28 4 -37 8 -15 10 -11 11 20 0 41 -5 47 -15 17z"/>
<path d="M65 2360 c3 -5 8 -10 11 -10 2 0 4 5 4 10 0 6 -5 10 -11 10 -5 0 -7
-4 -4 -10z"/>
<path d="M60 2136 c0 -51 4 -86 10 -86 6 0 10 33 10 79 0 44 -4 83 -10 86 -6
4 -10 -25 -10 -79z"/>
<path d="M97 1923 c3 -27 16 -81 29 -122 13 -40 24 -82 24 -92 0 -10 7 -22 15
-26 8 -5 19 -30 24 -56 4 -25 16 -58 25 -71 9 -14 16 -31 16 -37 0 -17 112
-242 166 -334 26 -44 64 -101 86 -127 21 -26 38 -49 38 -53 0 -8 39 -62 65
-90 11 -11 37 -40 57 -63 20 -23 44 -42 52 -42 21 0 20 10 -4 35 -42 43 -90
100 -90 107 0 8 -9 20 -54 70 -30 35 -116 163 -116 174 0 5 -9 17 -20 27 -11
9 -20 25 -20 35 0 11 -9 27 -19 36 -11 10 -23 31 -26 48 -4 16 -13 32 -21 35
-7 3 -16 20 -20 38 -3 19 -15 41 -25 51 -10 9 -19 26 -19 37 0 11 -9 34 -19
51 -11 17 -25 51 -31 76 -7 25 -16 48 -21 51 -6 3 -12 23 -15 45 -10 71 -14
84 -29 84 -11 0 -15 12 -15 49 0 66 -10 111 -25 111 -9 0 -11 -13 -8 -47z"/>
<path d="M711 801 c-9 -6 2 -22 39 -57 57 -54 79 -69 87 -60 4 3 -12 23 -35
44 -23 22 -42 35 -42 30 0 -5 -4 -6 -10 -3 -5 3 -10 15 -10 25 0 23 -12 31
-29 21z"/>
<path d="M850 656 c0 -8 23 -31 51 -52 29 -21 62 -47 73 -58 23 -22 106 -83
140 -103 11 -7 25 -18 31 -26 5 -8 21 -18 34 -22 14 -4 45 -22 70 -39 25 -18
62 -38 81 -46 19 -8 42 -22 52 -32 10 -10 25 -18 34 -18 9 0 28 -6 42 -14 69
-37 163 -76 181 -76 11 0 37 -9 58 -19 21 -11 56 -22 78 -25 70 -9 105 -18
105 -27 0 -5 14 -9 30 -9 17 0 30 3 30 6 0 18 -34 34 -72 34 -24 0 -62 9 -83
20 -22 11 -58 23 -80 27 -22 3 -53 13 -70 23 -16 10 -47 21 -68 24 -21 4 -40
13 -43 20 -3 8 -22 16 -42 20 -21 3 -48 15 -59 26 -12 11 -31 20 -41 20 -11 0
-30 8 -43 19 -13 10 -39 22 -56 25 -18 4 -33 13 -33 21 0 7 -12 16 -26 19 -14
4 -54 29 -89 56 -36 28 -69 50 -75 50 -5 0 -10 6 -10 14 0 8 -13 19 -30 25
-16 5 -30 15 -30 20 0 6 -6 11 -12 11 -7 0 -35 23 -62 50 -52 52 -66 60 -66
36z"/>
<path d="M1975 85 c25 -9 145 -12 145 -4 0 5 -35 9 -77 8 -43 0 -73 -2 -68 -4z"/>
<path d="M2298 33 c7 -3 16 -2 19 1 4 3 -2 6 -13 5 -11 0 -14 -3 -6 -6z"/>
</g>
</svg>
